<svg width="448" height="50" viewBox="0 0 448 50" fill="none" xmlns="http://www.w3.org/2000/svg">
<path d="M17.5 35H21.5V26H29.5V35H33.5V22L25.5 16L17.5 22V35ZM15.5 36.25V21.25L25.5 13.75L35.5 21.25V36.25H27.5V28H23.5V36.25H15.5Z" fill="black"/>
<path d="M148.917 36.25C148.917 31.4175 152.834 27.5 157.667 27.5C162.499 27.5 166.417 31.4175 166.417 36.25M162.667 18.75C162.667 21.5114 160.428 23.75 157.667 23.75C154.905 23.75 152.667 21.5114 152.667 18.75C152.667 15.9886 154.905 13.75 157.667 13.75C160.428 13.75 162.667 15.9886 162.667 18.75Z" stroke="black" stroke-width="2.5" stroke-linecap="round" stroke-linejoin="round"/>
<path d="M300.271 36.25C297.667 36.25 295.094 35.6823 292.552 34.5469C290.01 33.4115 287.698 31.8021 285.615 29.7188C283.531 27.6354 281.922 25.3229 280.786 22.7812C279.651 20.2396 279.083 17.6667 279.083 15.0625C279.083 14.6875 279.208 14.375 279.458 14.125C279.708 13.875 280.021 13.75 280.396 13.75H285.458C285.75 13.75 286.01 13.849 286.24 14.0469C286.469 14.2448 286.604 14.4792 286.646 14.75L287.458 19.125C287.5 19.4583 287.49 19.7396 287.427 19.9688C287.365 20.1979 287.25 20.3958 287.083 20.5625L283.833 24C284.25 24.7708 284.885 25.2812 285.458 26C286.031 26.7188 286.646 27.3333 287.333 28C287.979 28.6458 288.625 29.3229 289.333 29.875C290.042 30.4271 290.833 30.9375 291.708 31.25L294.646 28.3125C294.833 28.125 295.078 27.9844 295.38 27.8906C295.682 27.7969 295.979 27.7708 296.271 27.8125L300.583 28.6875C300.875 28.7708 301.115 28.9219 301.302 29.1406C301.49 29.3594 301.583 29.6042 301.583 29.875V34.9375C301.583 35.3125 301.458 35.625 301.208 35.875C300.958 36.125 300.646 36.25 300.271 36.25ZM282.865 21.25L284.927 19.1875L284.396 16.25H281.615C281.719 17.1042 281.865 17.9479 282.052 18.7812C282.24 19.6146 282.51 20.4375 282.865 21.25ZM294.052 32.4375C294.865 32.7917 295.693 33.0729 296.536 33.2812C297.38 33.4896 298.229 33.625 299.083 33.6875V30.9375L296.146 30.3438L294.052 32.4375Z" fill="black"/>
<path d="M413 17.5H433M413 25H433M413 32.5H433" stroke="black" stroke-width="4.5" stroke-linecap="round" stroke-linejoin="round"/>
</svg>
